<svg width="336" height="413" viewBox="0 0 336 413" fill="none" xmlns="http://www.w3.org/2000/svg">
<path d="M68.6252 233.159V244.644H11.4324L0 233.159H68.6252Z" fill="white"/>
<path d="M336 233.159L324.568 244.644H267.375V233.159H336Z" fill="white"/>
<path d="M267.251 351.123C264.865 354.734 225.642 412.907 168.697 413.031H167.303C110.327 412.907 71.1347 354.765 68.7491 351.123C71.4755 354.267 110.606 399.336 167.303 399.461H168.666C225.394 399.336 264.525 354.267 267.251 351.123Z" fill="white"/>
<path d="M168.728 350.937V375.183L168.697 350.937H168.728Z" fill="black"/>
<path d="M168.728 350.937V375.183L168.697 350.937H168.728Z" fill="black"/>
<path d="M336 106.761V233.16H267.375V350.938C267.375 350.938 267.375 350.938 267.344 350.969C267.344 351 267.313 351.031 267.251 351.093C264.524 354.237 225.394 399.306 168.697 399.431H167.303C110.575 399.306 71.4445 354.237 68.7491 351.093C68.7181 351.031 68.6871 351 68.6562 350.969C68.6562 350.938 68.6252 350.938 68.6252 350.938V233.16H0V182.893H21.4396L0 171.563V106.761H64.6595C59.8263 103.897 54.1566 100.193 49.7571 96.2716C50.9035 96.4583 81.4827 101.594 95.1768 94.7153L87.3073 93.2213C87.3073 93.2213 81.7925 53.9102 107.415 26.0221C117.112 14.7236 148.59 -10.7679 197.046 5.07482C202.313 6.78671 205.535 8.96547 209.841 12.4826C211.266 13.6342 213.28 15.9686 213.745 16.7779L213.373 16.8401L212.939 16.9024L212.692 16.9335L211.762 17.1203L211.607 17.1514C204.45 18.5831 181.245 24.8082 178.394 45.413C178.394 45.413 181.462 45.6932 185.427 47.0938C188.309 48.1209 191.655 49.7706 194.629 52.4162C201.631 58.6412 203.211 64.804 220.716 77.4408C220.716 77.4408 214.024 81.8917 208.602 82.0162C208.602 82.0162 213.869 86.4983 222.947 86.9029C222.947 86.9029 223.04 99.4775 233.852 106.792H336V106.761Z" fill="url(#paint0_linear)"/>
<path d="M167.985 45.9408C167.985 45.9408 132.603 51.4189 139.884 86.4969C141.185 92.6909 140.101 99.1649 136.817 104.581C136.817 104.581 89.9717 34.3311 175.761 34.3311C175.761 34.3 176.753 42.2369 167.985 45.9408Z" fill="white"/>
<path d="M225.208 104.55C225.208 104.55 218.299 105.141 210.399 105.141C200.454 105.11 190.88 101.686 182.98 95.6166C179.665 93.0644 176.164 91.2591 174.708 93.3445C174.305 93.9359 164.7 104.518 158.628 104.518C157.327 104.518 155.809 103.865 154.229 102.869C143.385 95.9279 138.273 82.4507 141.712 70.0006C144.345 60.4451 151.843 50.4851 170.742 47.4348C170.742 47.4348 186.109 47.7149 194.009 55.3717C194.009 55.3717 203.18 70.3741 211.081 73.9224C207.146 75.572 202.622 74.5449 199.772 71.339C197.851 69.1602 195.435 65.9854 192.46 61.3167C192.46 61.3167 174.832 57.6128 175.761 71.6502C175.761 71.6502 179.634 67.3861 182.608 69.6582C182.608 69.6582 187.255 76.5991 193.886 67.9463C193.886 67.9463 202.344 84.9407 218.423 90.0452C218.454 90.1386 217.897 99.3205 225.208 104.55Z" fill="white"/>
<path d="M57.7813 173.648V227.214H41.4228H25.1883H8.82977V190.082C17.8765 190.082 25.1883 197.458 25.1883 206.516V208.726H41.4228V185.506L8.82977 168.574V115.817H57.8123V152.949C48.7656 152.949 41.4538 145.573 41.4538 136.515V134.305H25.1883V156.591L57.7813 173.648Z" fill="white"/>
<path d="M110.606 192.447L78.1055 173.959V210.967C78.1055 220.024 70.7937 227.369 61.778 227.369V115.972H78.1055H110.606V192.447ZM94.3091 134.461H78.1365V143.954V153.105L94.3091 162.442V134.461Z" fill="white"/>
<path d="M113.115 115.817V227.214H129.815V180.9L146.39 190.051V210.406C146.39 219.682 153.857 227.183 163.089 227.183V115.817H113.115ZM146.39 171.313V171.407L129.815 162.1V134.274H146.39V168.574L153.764 175.422L146.39 171.313Z" fill="white"/>
<path d="M216.471 116.128H166.435V227.525H183.166V175.702L174.986 169.477L199.741 183.265V210.718C199.741 220.024 207.239 227.525 216.471 227.525V171.905L209.191 167.796L199.431 172.745L216.471 160.046V116.128ZM199.741 162.598L183.166 153.292V134.648H199.741V162.598Z" fill="white"/>
<path d="M274.5 134.461H255.663V227.525H238.035V134.461H218.857V115.972H274.5V134.461Z" fill="white"/>
<path d="M330.144 227.214H312.516V190.082L295.042 180.931V209.535C295.042 219.308 287.141 227.245 277.413 227.245V115.817H330.113V227.214H330.144ZM312.516 134.305H295.042V162.1L312.516 171.407V134.305Z" fill="white"/>
<path d="M196.364 13.8506C181.772 14.3797 176.474 31.2807 176.474 31.2807C88.9495 33.3038 129.505 102.308 129.505 102.308C100.134 109.996 72.8699 102.962 72.8699 102.962C97.0359 103.367 114.2 89.9205 114.2 89.9205L99.2976 86.808C96.1064 78.2486 99.2976 65.425 99.2976 65.425L110.792 64.2422L102.055 58.8887C101.962 52.7882 105.029 50.9829 105.029 50.9829L119.498 52.9127L108.654 43.9486C111.845 32.4945 123.773 26.0828 123.773 26.0828L131.984 31.7475L127.925 22.2232L133.037 18.9862L137.405 23.4682L135.608 18.5505C137.839 13.5082 147.753 12.5744 147.753 12.5744L151.161 20.4491L151.595 12.0453L156.614 10.4579L159.713 21.3517L160.673 10.3334C166.219 8.7149 175.854 10.3334 175.854 10.3334L176.567 18.8928L180.811 10.6758C192.43 9.02615 196.364 13.8506 196.364 13.8506Z" fill="white"/>
<path d="M134.71 342.906C133.316 341.723 132.448 341.007 131.178 339.918C130.899 339.669 130.465 339.887 130.465 340.26C130.248 354.391 130.125 361.83 129.877 376.085C129.877 376.366 129.567 376.583 129.288 376.521C110.234 370.607 94.9909 360.492 79.5619 348.104C79.4689 348.011 79.407 347.886 79.407 347.762C79.407 310.816 79.407 270.54 79.407 233.563C79.407 233.314 79.5929 233.128 79.8407 233.128H131.705C131.952 233.128 132.138 233.314 132.138 233.563C131.922 247.29 131.798 257.623 131.581 271.412C131.581 271.474 131.519 271.536 131.457 271.505C122.1 270.758 114.974 254.23 114.169 252.301C114.107 252.176 114.014 252.114 113.89 252.114C111.938 252.052 96.7259 251.958 96.7259 252.021C96.3851 274.088 96.0443 299.455 95.7035 322.83C95.5486 333.724 102.117 343.591 112.217 347.544C112.279 347.575 112.372 347.513 112.372 347.45C112.558 337.833 112.651 332.946 112.837 323.297C112.837 323.266 112.837 323.235 112.806 323.204L112.775 323.173C105.804 316.512 101.9 307.205 102.024 297.526C102.055 294.755 102.117 291.985 102.148 289.028C102.148 288.655 102.582 288.437 102.86 288.686C108.003 293.075 113.177 298.117 118.382 303.097C129.133 313.368 135.113 327.717 134.865 342.626V342.782C134.927 342.937 134.803 342.968 134.71 342.906Z" fill="white"/>
<path d="M198.006 233.159L204.11 237.454C202.251 236.084 200.237 234.653 198.006 233.159Z" fill="white"/>
<path d="M240.359 296.872C240.451 286.383 240.73 275.987 241.226 266.307L240.359 296.872Z" fill="white"/>
<path d="M257.708 348.259C252.875 352.679 249.87 355.138 245.316 358.282C250.521 354.266 256.624 349.193 257.708 348.259Z" fill="white"/>
<path d="M213.714 16.7454C213.714 16.7454 189.176 27.9504 185.427 47.0613C181.493 45.6295 178.395 45.3805 178.395 45.3805C181.245 24.7757 204.419 18.5506 211.607 17.1189L211.762 17.0877L212.692 16.901L212.94 16.8699L213.373 16.8076L213.714 16.7454Z" fill="white"/>
<path d="M257.894 233.159V348.135C257.894 348.135 257.832 348.197 257.708 348.291C256.593 349.225 242.558 360.461 241.226 361.114L240.359 296.903L241.226 266.338L228.245 280.905L216.007 268.61C216.471 297.463 217.246 327.375 217.68 355.014C217.866 366.437 210.182 376.553 199.09 379.136C199.028 379.136 198.936 379.167 198.874 379.198C198.254 331.67 198.595 280.687 197.975 233.19L204.079 237.485L204.202 237.578L227.129 253.764L257.894 233.159Z" fill="white"/>
<path d="M175.141 313.275L161.602 326.877L175.141 317.601V339.794C175.234 354.08 175.327 368.367 175.389 382.653C171.454 383.027 168.542 383.244 165.568 383.307C162.594 383.244 159.681 383.058 155.746 382.653C155.839 368.367 155.932 354.08 155.994 339.794V313.275L138.985 296.187V233.159H156.707V286.507L163.895 293.728L156.49 304.529L174.429 286.507V233.159H192.15V296.187L175.141 313.275Z" fill="white"/>
<defs>
<linearGradient id="paint0_linear" x1="-91.5319" y1="131.659" x2="237.133" y2="217.728" gradientUnits="userSpaceOnUse">
<stop stop-color="#F71C21"/>
<stop offset="1" stop-color="#530026"/>
</linearGradient>
</defs>
</svg>
