<svg width="13" height="20" viewBox="0 0 13 20" fill="none" xmlns="http://www.w3.org/2000/svg">
<path d="M9.42857 7C9.42857 8.73103 8.01674 10.1429 6.28571 10.1429C4.55469 10.1429 3.14286 8.73103 3.14286 7C3.14286 5.26897 4.55469 3.85714 6.28571 3.85714C8.01674 3.85714 9.42857 5.26897 9.42857 7ZM12.5714 7C12.5714 3.52567 9.76005 0.714285 6.28571 0.714285C2.81138 0.714285 0 3.52567 0 7C0 7.74888 0.0859375 8.52232 0.405134 9.19754L4.88616 18.6998C5.1317 19.24 5.69643 19.5714 6.28571 19.5714C6.875 19.5714 7.43973 19.24 7.69755 18.6998L12.1663 9.19754C12.4855 8.52232 12.5714 7.74888 12.5714 7Z" fill="#12C2E9"/>
</svg>
