<svg width="10" height="16" viewBox="0 0 10 16" fill="none" xmlns="http://www.w3.org/2000/svg">
<path d="M5.69643 14.4286C5.69643 14.9687 5.25446 15.4107 4.71429 15.4107C4.17411 15.4107 3.73214 14.9687 3.73214 14.4286C3.73214 13.8884 4.17411 13.4464 4.71429 13.4464C5.25446 13.4464 5.69643 13.8884 5.69643 14.4286ZM8.25 12.4643C8.25 12.673 8.06585 12.8571 7.85714 12.8571H1.57143C1.36272 12.8571 1.17857 12.673 1.17857 12.4643V3.82143C1.17857 3.61272 1.36272 3.42857 1.57143 3.42857H7.85714C8.06585 3.42857 8.25 3.61272 8.25 3.82143V12.4643ZM5.89286 2.05357C5.89286 2.16406 5.80692 2.25 5.69643 2.25H3.73214C3.62165 2.25 3.53571 2.16406 3.53571 2.05357C3.53571 1.94308 3.62165 1.85714 3.73214 1.85714H5.69643C5.80692 1.85714 5.89286 1.94308 5.89286 2.05357ZM9.42857 1.85714C9.42857 0.997767 8.71652 0.285714 7.85714 0.285714H1.57143C0.712054 0.285714 0 0.997767 0 1.85714V14.4286C0 15.2879 0.712054 16 1.57143 16H7.85714C8.71652 16 9.42857 15.2879 9.42857 14.4286V1.85714Z" fill="#12C2E9"/>
</svg>
