<svg width="18" height="18" viewBox="0 0 18 18" fill="none" xmlns="http://www.w3.org/2000/svg">
<path d="M8.57143 0.285713C3.83929 0.285713 0 4.125 0 8.85714C0 13.5893 3.83929 17.4286 8.57143 17.4286C13.3036 17.4286 17.1429 13.5893 17.1429 8.85714C17.1429 4.125 13.3036 0.285713 8.57143 0.285713ZM11.6295 6.10045C11.7522 6.02232 11.9531 5.92188 12.1094 5.96652C12.2321 6 12.3326 6.04464 12.1875 6.14509C12.1205 6.18973 12.0201 6.14509 11.942 6.16741C12.0424 6.18973 12.1875 6.23437 12.1429 6.33482C12.433 6.50223 12.0536 6.70312 11.8638 6.6808C11.9531 6.69196 11.6741 6.85937 11.6741 6.84821C11.5737 6.90402 11.4397 6.90402 11.3616 7.00446C11.2723 7.12723 11.3951 7.33929 11.2277 7.29464C11.1607 7.43973 10.904 7.36161 10.7924 7.51786C10.9152 7.65179 10.6696 7.84152 10.5469 7.67411C10.4353 7.71875 10.4911 7.84152 10.3795 7.90848C10.4241 7.97545 10.4353 8.04241 10.3571 8.08705C10.3795 8.07589 10.5134 8.1875 10.5469 8.19866C10.5246 8.25446 10.4799 8.29911 10.4241 8.29911C10.4799 8.4442 10.3571 8.60045 10.2567 8.68973C10.1451 8.77902 9.88839 8.8683 9.85491 8.89062C9.65402 9.08036 9.52009 9.35938 9.87723 9.4375C9.88839 9.4375 9.88839 9.8058 9.89955 9.81696C9.92188 9.95089 9.97768 10.3415 9.7433 10.1964C9.6317 10.1406 9.56473 9.82812 9.53125 9.70536C9.49777 9.57143 9.48661 9.57143 9.39732 9.4375C9.25223 9.60491 9.22991 9.48214 9.10714 9.40402C8.98438 9.33705 8.8058 9.35938 8.73884 9.29241C8.57143 9.41518 8.44866 9.3817 8.41518 9.19196C8.37054 9.28125 8.45982 9.41518 8.44866 9.44866C8.39286 9.56027 8.29241 9.53795 8.20313 9.47098C8.05804 9.35938 7.74554 9.54911 7.57813 9.47098C7.58929 9.47098 7.63393 9.51562 7.66741 9.53795C7.63393 9.67188 7.5558 9.59375 7.48884 9.63839C7.41071 9.6942 7.34375 9.8058 7.27679 9.86161C7.42188 10.1406 7.26563 10.4085 7.27679 10.7098C7.27679 10.933 7.42188 11.3237 7.63393 11.4464C7.73438 11.5022 8.0692 11.5246 8.16964 11.4799C8.32589 11.4129 8.30357 11.2902 8.35938 11.1562C8.41518 11.0112 8.48214 10.9442 8.64955 10.933C9.12946 10.9107 8.76116 11.3013 8.70536 11.5022C8.67188 11.6473 8.66071 11.8147 8.63839 11.9487C8.6942 11.971 8.75 11.9598 8.8058 11.9598C8.8058 11.9152 8.83929 11.8594 8.83929 11.8259C8.90625 11.9375 9.12946 11.971 9.19643 11.8371C9.27455 11.971 9.4308 12.0714 9.45313 12.2277C9.47545 12.3839 9.62054 12.5513 9.40848 12.5513C9.25223 12.5513 9.4308 12.8638 9.45313 12.9196C9.57589 13.1429 9.77679 13.2321 10 13.1205C10 13.2098 9.96652 13.4554 9.84375 13.4777C9.73214 13.5 9.52009 13.2656 9.56473 13.1429C9.55357 13.1875 9.52009 13.221 9.48661 13.2433C9.375 13.1094 9.18527 13.0424 9.08482 12.9085C9.0625 12.875 8.76116 12.4174 8.82813 12.3951C8.67188 12.4621 8.35938 12.3504 8.21429 12.2723C7.97991 12.1496 7.94643 11.8259 7.65625 11.8705C7.45536 11.904 7.39955 11.9821 7.16518 11.8929C7.00893 11.8371 6.875 11.7254 6.71875 11.6473C6.54018 11.5469 6.22768 11.4464 6.16071 11.2232C6.09375 11.0446 6.11607 10.8326 6.01562 10.6652C5.94866 10.5536 5.74777 10.3304 5.60268 10.3304C5.73661 10.3304 5.47991 9.99554 5.44643 9.96205C5.32366 9.81696 4.87723 9.42634 4.96652 9.20312C4.98884 9.16964 4.7433 9.08036 4.69866 9.0692C4.7433 9.1808 4.75446 9.30357 4.81027 9.40402C4.86607 9.51562 4.93304 9.61607 5 9.72768C5.12277 9.92857 5.29018 10.1741 5.26786 10.4196C5.12277 10.4643 5.16741 10.2522 5.12277 10.1629C5.04464 10.0179 4.83259 10.0179 4.77679 9.86161C4.79911 9.85045 4.81027 9.85045 4.83259 9.83929C4.84375 9.64955 4.56473 9.4933 4.60938 9.35938C4.45313 9.23661 4.45313 9.00223 4.34152 8.84598C4.24107 8.70089 4.07366 8.63393 3.92857 8.53348C3.87277 8.5 3.47098 7.98661 3.61607 7.95312C3.39286 8.00893 3.28125 7.48437 3.31473 7.35045C3.31473 7.35045 3.29241 7.35045 3.29241 7.33929C3.33705 7.20536 3.25893 6.51339 3.4375 6.50223C3.31473 6.51339 3.28125 6.21205 3.31473 6.15625C3.33705 6.11161 3.50446 6.27902 3.51563 6.30134C3.58259 6.26786 3.64955 6.17857 3.62723 6.10045C3.59375 6.01116 3.47098 5.93304 3.39286 5.86607C3.35938 5.84375 2.91295 5.55357 2.90179 5.56473C2.94643 5.48661 2.93527 5.40848 2.8683 5.35268C2.65625 5.52009 2.76786 5.19643 2.65625 5.16295C2.61161 5.15179 2.56696 5.1183 2.52232 5.07366C3.16964 4.04688 4.07366 3.1875 5.14509 2.59598C5.21205 2.58482 5.30134 2.58482 5.39062 2.58482C5.59152 2.60714 5.70312 2.77455 5.84821 2.875C5.87054 2.8192 5.82589 2.72991 5.79241 2.67411C5.82589 2.58482 5.95982 2.5625 6.03795 2.54018C6.13839 2.52902 6.28348 2.5067 6.37277 2.55134C6.3058 2.45089 6.22768 2.36161 6.14955 2.27232C6.13839 2.28348 6.10491 2.3058 6.09375 2.32812C5.97098 2.22768 5.73661 2.36161 5.625 2.40625C5.53571 2.45089 5.45759 2.5067 5.3683 2.54018C5.3125 2.5625 5.27902 2.5625 5.23438 2.55134C5.5692 2.37277 5.91518 2.21652 6.28348 2.09375C6.35045 2.13839 6.41741 2.21652 6.51786 2.29464C6.45089 2.23884 6.45089 2.49554 6.47321 2.54018C6.59598 2.70759 6.86384 2.59598 7.03125 2.59598C7.02009 2.59598 7.52232 2.66295 7.42188 2.54018C7.5 2.65179 7.5 2.8192 7.60045 2.91964C7.70089 2.8192 7.5558 2.70759 7.62277 2.60714C7.64509 2.5625 7.84598 2.5067 7.91295 2.47321C7.99107 2.41741 7.85714 2.33929 7.82366 2.31696C7.71205 2.25 7.27679 2.21652 7.48884 1.95982C7.56696 1.87054 7.84598 1.91518 7.93527 1.97098C8.05804 2.03795 8.19196 2.16071 8.02455 2.27232C8.10268 2.28348 8.47098 2.38393 8.41518 2.52902C8.44866 2.46205 8.50446 2.36161 8.59375 2.36161C8.6942 2.37277 8.71652 2.60714 8.76116 2.66295C8.91741 2.94196 9.18527 2.38393 9.22991 2.40625C9.02902 2.32812 9.40848 2.22768 9.50893 2.26116C9.58705 2.29464 9.70982 2.5625 9.56473 2.55134C9.6875 2.66295 9.69866 2.90848 9.47545 2.89732C9.3192 2.88616 9.14063 2.67411 8.99554 2.84152C8.89509 2.95312 8.85045 3.12054 8.75 3.22098C8.59375 3.37723 8.3817 3.36607 8.19196 3.34375C8.27009 3.35491 8.02455 3.61161 8.00223 3.65625C7.93527 3.73438 7.89063 3.82366 7.8683 3.91295C7.84598 4.02455 7.8683 4.14732 7.8125 4.25893C8.00223 4.20312 8.10268 4.54911 8.02455 4.56027C8.25893 4.52679 8.44866 4.52679 8.67188 4.60491C8.82813 4.66071 9.0625 4.72768 9.12946 4.89509C9.17411 4.82812 9.38616 4.86161 9.45313 4.88393C9.58705 4.95089 9.59821 5.09598 9.6317 5.21875C9.67634 5.38616 9.82143 5.66518 10.0112 5.57589C10.0446 5.55357 10.2902 5.44196 10.2009 5.375C10.1116 5.29688 10.0112 5.09598 10.1004 4.98438C10.1897 4.86161 10.4018 4.82812 10.4576 4.67188C10.5469 4.41518 10.1897 4.44866 10.1897 4.25893C10.1897 4.14732 10.3348 4.11384 10.3237 3.97991C10.3237 3.8683 10.1562 3.64509 10.2902 3.56696C10.4018 3.5 10.9375 3.61161 11.0379 3.67857C11.1384 3.74554 11.4509 3.83482 11.4732 3.93527C11.4509 3.93527 11.4397 3.93527 11.4174 3.93527C11.5067 4.01339 11.5848 4.1808 11.4286 4.22545C11.529 4.20312 11.8192 4.31473 11.6183 4.3817C11.6853 4.34821 11.7411 4.37054 11.808 4.32589C11.8862 4.28125 11.9308 4.20312 12.0312 4.25893C12.0536 4.27009 12.1763 4.02455 12.2433 4.03571C12.3438 4.04688 12.3661 4.19196 12.4107 4.25893C12.4554 4.35938 12.5781 4.39286 12.6228 4.4933C12.7009 4.68304 12.6674 4.86161 12.9241 4.92857C13.0022 4.95089 13.2143 4.82812 13.2031 4.99554C13.2478 4.95089 13.2701 4.91741 13.2701 4.90625C13.2812 5.0625 13.3482 5.24107 13.5379 5.21875C13.5379 5.21875 13.5379 5.4308 13.5156 5.46429C13.4487 5.56473 13.2812 5.54241 13.1808 5.59821C13.1473 5.60938 12.8795 5.84375 12.9129 5.87723C12.7679 5.70982 12.5335 5.70982 12.3438 5.75446C12.1429 5.78795 11.9531 5.81027 11.7634 5.88839C11.6741 5.93304 11.5848 5.97768 11.5179 6.0558C11.4844 6.10045 11.4286 6.30134 11.3728 6.3125C11.4844 6.29018 11.5402 6.16741 11.6295 6.10045ZM9.81027 15.8884C9.79911 15.8326 9.78795 15.721 9.78795 15.7098C9.77679 15.5312 9.96652 15.4085 9.95536 15.2411C9.83259 15.2076 9.79911 15.0848 9.82143 14.9509C9.84375 14.7612 10.0112 14.6272 10.1451 14.5045C10.279 14.3817 10.3125 14.125 10.279 13.9687C10.2232 13.7009 10.2232 13.4219 10.1786 13.154C10.1897 13.221 10.3795 13.1987 10.4129 13.2879C10.4576 13.2098 10.4799 13.1094 10.5357 13.0312C10.5804 12.9643 10.6585 12.942 10.7254 12.8862C10.8371 12.8192 11.0714 12.5625 11.2054 12.7188C11.317 12.8527 11.0379 12.9978 11.183 13.1205C11.2277 13.0312 11.183 12.8973 11.2723 12.808C11.4509 12.6071 11.5737 12.8304 11.7522 12.8862C11.942 12.942 12.0089 13.0089 12.154 13.1317C12.1094 13.0871 12.3326 13.0089 12.3549 12.9978C12.567 12.9531 12.6562 13.0759 12.8013 13.1875C12.9576 13.2991 13.2031 13.3772 13.1808 13.6004C13.2924 13.6228 13.3594 13.6562 13.4487 13.6897C13.5379 13.7344 13.6607 13.7121 13.7277 13.779C12.7009 14.8616 11.3393 15.6205 9.81027 15.8884Z" fill="#12C2E9"/>
</svg>
